
o TransformGizmo

g Cylinder

v -1 0 0
v -0.3090169943749474 0 0.9510565162951536
v 0.8090169943749474 0 0.5877852522924731
v 0.8090169943749474 0 -0.5877852522924731
v -0.3090169943749474 0 -0.9510565162951536

v -1 1 0
v -0.3090169943749474 1 0.9510565162951536
v 0.8090169943749474 1 0.5877852522924731
v 0.8090169943749474 1 -0.5877852522924731
v -0.3090169943749474 1 -0.9510565162951536

v 0 1 0

vn -1 0 0
vn -0.3090169943749474 0 0.9510565162951536
vn 0.8090169943749474 0 0.5877852522924731
vn 0.8090169943749474 0 -0.5877852522924731
vn -0.3090169943749474 0 -0.9510565162951536
vn 0 -1 0
vn 0 1 0

f 1//6 3//6 2//6
f 1//6 5//6 3//6
f 3//6 5//6 4//6

f 6//7 7//7 8//7
f 6//7 8//7 10//7
f 8//7 9//7 10//7

f 1//1 2//2 6//1
f 2//2 7//2 6//1

f 2//2 3//3 7//2
f 3//3 8//3 7//2

f 3//3 4//4 8//3
f 4//4 9//4 8//3

f 4//4 5//5 9//4
f 5//5 10//5 9//4

f 5//5 1//1 10//5
f 1//1 6//1 10//5

g ArrowHead

f 1//6 3//6 2//6
f 1//6 5//6 3//6
f 3//6 5//6 4//6

f 1//1 2//2 11//1

f 2//2 3//3 11//2

f 3//3 4//4 11//3

f 4//4 5//5 11//4

f 5//5 1//1 11//5
